<mxfile host="app.diagrams.net" modified="2024-06-05T12:13:54.970Z" agent="Mozilla/5.0 (Windows NT 10.0; Win64; x64) AppleWebKit/537.36 (KHTML, like Gecko) Chrome/125.0.0.0 Safari/537.36 Edg/125.0.0.0" etag="x7JgTE8SqMXRymgq133I" version="24.4.14" type="github">
  <diagram name="Page-1" id="Ul3hG8IQeu0czUQaKyKT">
    <mxGraphModel dx="1501" dy="791" grid="1" gridSize="10" guides="1" tooltips="1" connect="1" arrows="1" fold="1" page="1" pageScale="1" pageWidth="827" pageHeight="1169" math="0" shadow="0">
      <root>
        <mxCell id="0" />
        <mxCell id="1" parent="0" />
        <mxCell id="y2qfPMTWO536Oq6Htdhc-1" value="" style="rounded=0;whiteSpace=wrap;html=1;" vertex="1" parent="1">
          <mxGeometry x="220" y="23.16" width="1593.68" height="2096.84" as="geometry" />
        </mxCell>
        <mxCell id="y2qfPMTWO536Oq6Htdhc-2" value="&lt;font style=&quot;font-size: 20px;&quot;&gt;&lt;font style=&quot;font-size: 20px;&quot;&gt;Initialiser la liste des&amp;nbsp;&lt;/font&gt;&lt;font style=&quot;background-color: initial; font-size: 20px;&quot;&gt;recettes&amp;nbsp;&lt;/font&gt;&lt;span style=&quot;background-color: initial;&quot;&gt;filtrées filteredRecipes avec&amp;nbsp;&lt;/span&gt;&lt;/font&gt;&lt;span style=&quot;font-size: 20px; background-color: initial;&quot;&gt;toutes les recettes&lt;/span&gt;" style="rounded=1;whiteSpace=wrap;html=1;fillColor=#f5f5f5;strokeColor=#666666;fontColor=#333333;" vertex="1" parent="1">
          <mxGeometry x="245.01" y="164.09" width="354.99" height="71" as="geometry" />
        </mxCell>
        <mxCell id="y2qfPMTWO536Oq6Htdhc-3" value="" style="edgeStyle=orthogonalEdgeStyle;rounded=0;orthogonalLoop=1;jettySize=auto;html=1;" edge="1" parent="1" source="y2qfPMTWO536Oq6Htdhc-7" target="y2qfPMTWO536Oq6Htdhc-15">
          <mxGeometry relative="1" as="geometry" />
        </mxCell>
        <mxCell id="y2qfPMTWO536Oq6Htdhc-4" value="OUI" style="edgeLabel;html=1;align=center;verticalAlign=middle;resizable=0;points=[];fontSize=13;fontStyle=1" vertex="1" connectable="0" parent="y2qfPMTWO536Oq6Htdhc-3">
          <mxGeometry x="-0.1389" y="2" relative="1" as="geometry">
            <mxPoint as="offset" />
          </mxGeometry>
        </mxCell>
        <mxCell id="y2qfPMTWO536Oq6Htdhc-5" value="" style="edgeStyle=orthogonalEdgeStyle;rounded=0;orthogonalLoop=1;jettySize=auto;html=1;entryX=0.5;entryY=0;entryDx=0;entryDy=0;" edge="1" parent="1" source="y2qfPMTWO536Oq6Htdhc-7" target="y2qfPMTWO536Oq6Htdhc-26">
          <mxGeometry relative="1" as="geometry">
            <mxPoint x="391.24" y="420" as="targetPoint" />
          </mxGeometry>
        </mxCell>
        <mxCell id="y2qfPMTWO536Oq6Htdhc-6" value="NON" style="edgeLabel;html=1;align=center;verticalAlign=middle;resizable=0;points=[];fontStyle=1;fontSize=13;" vertex="1" connectable="0" parent="y2qfPMTWO536Oq6Htdhc-5">
          <mxGeometry x="-0.0934" y="2" relative="1" as="geometry">
            <mxPoint as="offset" />
          </mxGeometry>
        </mxCell>
        <mxCell id="y2qfPMTWO536Oq6Htdhc-7" value="&lt;font style=&quot;font-size: 19px;&quot;&gt;&lt;font style=&quot;font-size: 19px;&quot;&gt;&amp;nbsp;&lt;/font&gt;&lt;/font&gt;&lt;div&gt;&lt;font style=&quot;font-size: 19px;&quot;&gt;&lt;font style=&quot;font-size: 19px;&quot;&gt;Le mot-clé de recherche&amp;nbsp;&lt;/font&gt;&lt;/font&gt;&lt;div style=&quot;font-size: 19px;&quot;&gt;&lt;font style=&quot;font-size: 19px;&quot;&gt;&lt;font style=&quot;font-size: 19px;&quot;&gt;&amp;nbsp;est il&amp;nbsp;&lt;/font&gt;&lt;font style=&quot;background-color: initial; font-size: 19px;&quot;&gt;inférieur ou égal&amp;nbsp;&lt;/font&gt;&lt;span style=&quot;background-color: initial;&quot;&gt;à&amp;nbsp;&lt;/span&gt;&lt;/font&gt;&lt;/div&gt;&lt;div style=&quot;font-size: 19px;&quot;&gt;&lt;span style=&quot;background-color: initial;&quot;&gt;&lt;font style=&quot;font-size: 19px;&quot;&gt;3 caractères ?&lt;/font&gt;&lt;font style=&quot;font-size: 20px;&quot;&gt;&amp;nbsp;&lt;/font&gt;&lt;/span&gt;&lt;/div&gt;&lt;/div&gt;" style="ellipse;whiteSpace=wrap;html=1;aspect=fixed;fillColor=#dae8fc;strokeColor=#6c8ebf;" vertex="1" parent="1">
          <mxGeometry x="284.93" y="265.15999999999997" width="223.4" height="146.42" as="geometry" />
        </mxCell>
        <mxCell id="y2qfPMTWO536Oq6Htdhc-8" value="" style="edgeStyle=orthogonalEdgeStyle;rounded=0;orthogonalLoop=1;jettySize=auto;html=1;" edge="1" parent="1">
          <mxGeometry relative="1" as="geometry">
            <mxPoint x="395" y="142" as="sourcePoint" />
            <mxPoint x="395.5714285714289" y="164.08999999999992" as="targetPoint" />
          </mxGeometry>
        </mxCell>
        <mxCell id="y2qfPMTWO536Oq6Htdhc-9" value="&lt;font style=&quot;font-size: 20px;&quot;&gt;Entrée de la recherche principale par l&#39;utilisateur&lt;/font&gt;" style="rounded=1;whiteSpace=wrap;html=1;fillColor=#f5f5f5;strokeColor=#666666;fontColor=#333333;" vertex="1" parent="1">
          <mxGeometry x="265.55" y="92" width="260.81" height="50" as="geometry" />
        </mxCell>
        <mxCell id="y2qfPMTWO536Oq6Htdhc-10" value="" style="edgeStyle=orthogonalEdgeStyle;rounded=0;orthogonalLoop=1;jettySize=auto;html=1;" edge="1" parent="1">
          <mxGeometry relative="1" as="geometry">
            <mxPoint x="395.5714285714289" y="70" as="sourcePoint" />
            <mxPoint x="395" y="92" as="targetPoint" />
          </mxGeometry>
        </mxCell>
        <mxCell id="y2qfPMTWO536Oq6Htdhc-11" value="&lt;font style=&quot;font-size: 20px;&quot;&gt;Début&lt;/font&gt;" style="rounded=1;whiteSpace=wrap;html=1;fillColor=#f5f5f5;strokeColor=#666666;fontColor=#333333;" vertex="1" parent="1">
          <mxGeometry x="346.64000000000004" y="40" width="99.97" height="30" as="geometry" />
        </mxCell>
        <mxCell id="y2qfPMTWO536Oq6Htdhc-12" value="" style="endArrow=none;html=1;rounded=0;strokeColor=#FFFFFF;" edge="1" parent="1">
          <mxGeometry width="50" height="50" relative="1" as="geometry">
            <mxPoint x="1013.4746153095016" y="1163.9733498686614" as="sourcePoint" />
            <mxPoint x="953.87" y="1158.69" as="targetPoint" />
          </mxGeometry>
        </mxCell>
        <mxCell id="y2qfPMTWO536Oq6Htdhc-13" value="" style="endArrow=classic;html=1;rounded=0;strokeColor=#FFFFFF;" edge="1" parent="1">
          <mxGeometry width="50" height="50" relative="1" as="geometry">
            <mxPoint x="953.87" y="1159.69" as="sourcePoint" />
            <mxPoint x="953.87" y="1229.69" as="targetPoint" />
          </mxGeometry>
        </mxCell>
        <mxCell id="y2qfPMTWO536Oq6Htdhc-14" value="" style="edgeStyle=orthogonalEdgeStyle;rounded=0;orthogonalLoop=1;jettySize=auto;html=1;" edge="1" parent="1" source="y2qfPMTWO536Oq6Htdhc-15" target="y2qfPMTWO536Oq6Htdhc-21">
          <mxGeometry relative="1" as="geometry" />
        </mxCell>
        <mxCell id="y2qfPMTWO536Oq6Htdhc-15" value="&lt;font style=&quot;font-size: 19px;&quot;&gt;Utilisation de .filter pour filtrer les recettes&lt;/font&gt;" style="rounded=1;whiteSpace=wrap;html=1;fillColor=#dae8fc;strokeColor=#6c8ebf;" vertex="1" parent="1">
          <mxGeometry x="563.24" y="301.73" width="185" height="75" as="geometry" />
        </mxCell>
        <mxCell id="y2qfPMTWO536Oq6Htdhc-16" value="" style="endArrow=classic;html=1;rounded=0;strokeColor=#FFFFFF;" edge="1" parent="1" source="y2qfPMTWO536Oq6Htdhc-96">
          <mxGeometry width="50" height="50" relative="1" as="geometry">
            <mxPoint x="643.87" y="1158.69" as="sourcePoint" />
            <mxPoint x="643.87" y="1408.69" as="targetPoint" />
          </mxGeometry>
        </mxCell>
        <mxCell id="y2qfPMTWO536Oq6Htdhc-19" value="" style="edgeStyle=orthogonalEdgeStyle;rounded=0;orthogonalLoop=1;jettySize=auto;html=1;" edge="1" parent="1" source="y2qfPMTWO536Oq6Htdhc-21">
          <mxGeometry relative="1" as="geometry">
            <mxPoint x="1081.54" y="338.3913043478261" as="targetPoint" />
          </mxGeometry>
        </mxCell>
        <mxCell id="y2qfPMTWO536Oq6Htdhc-20" value="OUI" style="edgeLabel;html=1;align=center;verticalAlign=middle;resizable=0;points=[];fontSize=13;fontStyle=1" vertex="1" connectable="0" parent="y2qfPMTWO536Oq6Htdhc-19">
          <mxGeometry x="-0.2214" y="5" relative="1" as="geometry">
            <mxPoint y="4" as="offset" />
          </mxGeometry>
        </mxCell>
        <mxCell id="y2qfPMTWO536Oq6Htdhc-21" value="&lt;div style=&quot;font-size: 19px;&quot;&gt;&lt;font style=&quot;font-size: 19px;&quot;&gt;&lt;br&gt;&lt;/font&gt;&lt;/div&gt;&lt;font style=&quot;font-size: 19px;&quot;&gt;Le mot clé est-il présent dans le titre, la description ou les ingrédients de chaque recette ?&amp;nbsp;&lt;/font&gt;" style="ellipse;whiteSpace=wrap;html=1;aspect=fixed;fillColor=#dae8fc;strokeColor=#6c8ebf;" vertex="1" parent="1">
          <mxGeometry x="778.22" y="258.64000000000004" width="240.63" height="157.71" as="geometry" />
        </mxCell>
        <mxCell id="y2qfPMTWO536Oq6Htdhc-22" value="" style="edgeStyle=orthogonalEdgeStyle;rounded=0;orthogonalLoop=1;jettySize=auto;html=1;" edge="1" parent="1" source="y2qfPMTWO536Oq6Htdhc-23" target="y2qfPMTWO536Oq6Htdhc-24">
          <mxGeometry relative="1" as="geometry" />
        </mxCell>
        <mxCell id="y2qfPMTWO536Oq6Htdhc-23" value="&lt;font style=&quot;font-size: 19px;&quot;&gt;Mise à jour de la liste des recettes filtrées filteredRecipes et mise à jour de l&#39;affichage des recettes pour l&#39;utilisateur&lt;/font&gt;" style="rounded=1;whiteSpace=wrap;html=1;fillColor=#dae8fc;strokeColor=#6c8ebf;" vertex="1" parent="1">
          <mxGeometry x="1081.8900000000003" y="272.66" width="320" height="129.66" as="geometry" />
        </mxCell>
        <mxCell id="y2qfPMTWO536Oq6Htdhc-24" value="&lt;font style=&quot;font-size: 19px;&quot;&gt;Mise à jour les listes d&#39;ingrédients, d&#39;appareils et d&#39;ustensiles disponibles basées sur les recettes filtrées&lt;/font&gt;" style="rounded=1;whiteSpace=wrap;html=1;fillColor=#dae8fc;strokeColor=#6c8ebf;" vertex="1" parent="1">
          <mxGeometry x="1433.5" y="434.46" width="329.48" height="110" as="geometry" />
        </mxCell>
        <mxCell id="y2qfPMTWO536Oq6Htdhc-25" value="" style="edgeStyle=orthogonalEdgeStyle;rounded=0;orthogonalLoop=1;jettySize=auto;html=1;" edge="1" parent="1" source="y2qfPMTWO536Oq6Htdhc-26" target="y2qfPMTWO536Oq6Htdhc-29">
          <mxGeometry relative="1" as="geometry" />
        </mxCell>
        <mxCell id="y2qfPMTWO536Oq6Htdhc-26" value="&lt;font style=&quot;font-size: 19px;&quot;&gt;Entrée de la recherche dans le menu déroulant des ingrédients par l&#39;utilisateur&lt;/font&gt;" style="rounded=1;whiteSpace=wrap;html=1;fillColor=#e1d5e7;strokeColor=#9673a6;" vertex="1" parent="1">
          <mxGeometry x="269.92" y="460" width="252.07" height="84.46" as="geometry" />
        </mxCell>
        <mxCell id="y2qfPMTWO536Oq6Htdhc-27" value="" style="edgeStyle=orthogonalEdgeStyle;rounded=0;orthogonalLoop=1;jettySize=auto;html=1;" edge="1" parent="1" source="y2qfPMTWO536Oq6Htdhc-29" target="y2qfPMTWO536Oq6Htdhc-31">
          <mxGeometry relative="1" as="geometry" />
        </mxCell>
        <mxCell id="y2qfPMTWO536Oq6Htdhc-28" value="OUI" style="edgeLabel;html=1;align=center;verticalAlign=middle;resizable=0;points=[];fontStyle=1;fontSize=13;" vertex="1" connectable="0" parent="y2qfPMTWO536Oq6Htdhc-27">
          <mxGeometry x="-0.0324" relative="1" as="geometry">
            <mxPoint as="offset" />
          </mxGeometry>
        </mxCell>
        <mxCell id="y2qfPMTWO536Oq6Htdhc-29" value="&lt;div&gt;&lt;font style=&quot;font-size: 19px;&quot;&gt;&lt;font style=&quot;font-size: 19px;&quot;&gt;&lt;br&gt;&lt;/font&gt;&lt;/font&gt;&lt;/div&gt;&lt;font style=&quot;font-size: 19px;&quot;&gt;&lt;font style=&quot;font-size: 19px;&quot;&gt;&amp;nbsp;&lt;/font&gt;&lt;font style=&quot;font-size: 19px;&quot;&gt;Le mot-clé de recherche&amp;nbsp;&lt;/font&gt;&lt;/font&gt;&lt;div style=&quot;font-size: 19px;&quot;&gt;&lt;font style=&quot;font-size: 19px;&quot;&gt;&lt;font style=&quot;font-size: 19px;&quot;&gt;&amp;nbsp;est il&amp;nbsp;&lt;/font&gt;&lt;font style=&quot;background-color: initial; font-size: 19px;&quot;&gt;inférieur ou égal&amp;nbsp;&lt;/font&gt;&lt;span style=&quot;background-color: initial;&quot;&gt;à&amp;nbsp;&lt;/span&gt;&lt;/font&gt;&lt;/div&gt;&lt;div style=&quot;font-size: 19px;&quot;&gt;&lt;span style=&quot;background-color: initial;&quot;&gt;&lt;font style=&quot;font-size: 19px;&quot;&gt;&lt;font style=&quot;font-size: 19px;&quot;&gt;3 caractères ?&lt;/font&gt;&lt;font style=&quot;font-size: 19px;&quot;&gt;&amp;nbsp;&lt;/font&gt;&lt;/font&gt;&lt;/span&gt;&lt;/div&gt;" style="ellipse;whiteSpace=wrap;html=1;aspect=fixed;fillColor=#e1d5e7;strokeColor=#9673a6;" vertex="1" parent="1">
          <mxGeometry x="284.14" y="592" width="224.16" height="146.91" as="geometry" />
        </mxCell>
        <mxCell id="y2qfPMTWO536Oq6Htdhc-30" value="" style="edgeStyle=orthogonalEdgeStyle;rounded=0;orthogonalLoop=1;jettySize=auto;html=1;entryX=0;entryY=0.5;entryDx=0;entryDy=0;" edge="1" parent="1" source="y2qfPMTWO536Oq6Htdhc-31" target="y2qfPMTWO536Oq6Htdhc-36">
          <mxGeometry relative="1" as="geometry">
            <mxPoint x="833.5800042397968" y="664.4782608695652" as="targetPoint" />
          </mxGeometry>
        </mxCell>
        <mxCell id="y2qfPMTWO536Oq6Htdhc-31" value="&lt;font style=&quot;font-size: 19px;&quot;&gt;Filtrer les ingrédients dans la liste &#39;allIngredienttems&#39;&lt;/font&gt;" style="rounded=1;whiteSpace=wrap;html=1;fillColor=#e1d5e7;strokeColor=#9673a6;" vertex="1" parent="1">
          <mxGeometry x="574.14" y="630.27" width="215.86" height="69.73" as="geometry" />
        </mxCell>
        <mxCell id="y2qfPMTWO536Oq6Htdhc-35" value="" style="edgeStyle=orthogonalEdgeStyle;rounded=0;orthogonalLoop=1;jettySize=auto;html=1;" edge="1" parent="1" source="y2qfPMTWO536Oq6Htdhc-36" target="y2qfPMTWO536Oq6Htdhc-38">
          <mxGeometry relative="1" as="geometry" />
        </mxCell>
        <mxCell id="y2qfPMTWO536Oq6Htdhc-36" value="&lt;font style=&quot;font-size: 19px;&quot;&gt;Mise à jour de la liste d&#39;ingrédients affichée dans le menu déroulant avec les termes correspondants&lt;/font&gt;" style="rounded=1;whiteSpace=wrap;html=1;fillColor=#e1d5e7;strokeColor=#9673a6;" vertex="1" parent="1">
          <mxGeometry x="840" y="616.2899999999998" width="294.78" height="97.69" as="geometry" />
        </mxCell>
        <mxCell id="y2qfPMTWO536Oq6Htdhc-37" value="" style="edgeStyle=orthogonalEdgeStyle;rounded=0;orthogonalLoop=1;jettySize=auto;html=1;" edge="1" parent="1" source="y2qfPMTWO536Oq6Htdhc-38" target="y2qfPMTWO536Oq6Htdhc-40">
          <mxGeometry relative="1" as="geometry">
            <Array as="points">
              <mxPoint x="1606" y="665" />
            </Array>
          </mxGeometry>
        </mxCell>
        <mxCell id="y2qfPMTWO536Oq6Htdhc-38" value="&lt;font style=&quot;font-size: 19px;&quot;&gt;L&#39;utilisateur sélectionne un ingrédient dans la liste mise à jour&lt;/font&gt;" style="rounded=1;whiteSpace=wrap;html=1;fillColor=#e1d5e7;strokeColor=#9673a6;" vertex="1" parent="1">
          <mxGeometry x="1210" y="630.12" width="305.09" height="70.67" as="geometry" />
        </mxCell>
        <mxCell id="y2qfPMTWO536Oq6Htdhc-39" value="" style="edgeStyle=orthogonalEdgeStyle;rounded=0;orthogonalLoop=1;jettySize=auto;html=1;entryX=0.47;entryY=0.016;entryDx=0;entryDy=0;entryPerimeter=0;" edge="1" parent="1">
          <mxGeometry relative="1" as="geometry">
            <mxPoint x="1603.7142857142862" y="788.7100000000003" as="sourcePoint" />
            <mxPoint x="1607.4599999999996" y="852.5460000000003" as="targetPoint" />
            <Array as="points">
              <mxPoint x="1607" y="789" />
            </Array>
          </mxGeometry>
        </mxCell>
        <mxCell id="y2qfPMTWO536Oq6Htdhc-40" value="&lt;font style=&quot;font-size: 19px;&quot;&gt;Un tag est créé avec l&#39;ingrédient sélectionné&lt;/font&gt;" style="rounded=1;whiteSpace=wrap;html=1;fillColor=#e1d5e7;strokeColor=#9673a6;" vertex="1" parent="1">
          <mxGeometry x="1454.5300000000002" y="736.7099999999999" width="302.33" height="60" as="geometry" />
        </mxCell>
        <mxCell id="y2qfPMTWO536Oq6Htdhc-44" value="" style="edgeStyle=orthogonalEdgeStyle;rounded=0;orthogonalLoop=1;jettySize=auto;html=1;" edge="1" parent="1" source="y2qfPMTWO536Oq6Htdhc-45" target="y2qfPMTWO536Oq6Htdhc-49">
          <mxGeometry relative="1" as="geometry" />
        </mxCell>
        <mxCell id="y2qfPMTWO536Oq6Htdhc-45" value="&lt;font style=&quot;font-size: 19px;&quot;&gt;Ajout des recettes correspondantes à la nouvelle liste filteredByIngredient&lt;font style=&quot;font-size: 19px;&quot;&gt;&lt;span style=&quot;font-family: ui-sans-serif, -apple-system, system-ui, &amp;quot;Segoe UI&amp;quot;, Roboto, Ubuntu, Cantarell, &amp;quot;Noto Sans&amp;quot;, sans-serif, Helvetica, &amp;quot;Apple Color Emoji&amp;quot;, Arial, &amp;quot;Segoe UI Emoji&amp;quot;, &amp;quot;Segoe UI Symbol&amp;quot;; text-align: left; white-space-collapse: preserve;&quot;&gt;.&lt;/span&gt;&lt;/font&gt;&lt;/font&gt;" style="rounded=1;whiteSpace=wrap;html=1;fillColor=#e1d5e7;strokeColor=#9673a6;" vertex="1" parent="1">
          <mxGeometry x="1088.57" y="858.73" width="287.75" height="101.27" as="geometry" />
        </mxCell>
        <mxCell id="y2qfPMTWO536Oq6Htdhc-46" value="" style="edgeStyle=orthogonalEdgeStyle;rounded=0;orthogonalLoop=1;jettySize=auto;html=1;entryX=0.545;entryY=-0.001;entryDx=0;entryDy=0;entryPerimeter=0;" edge="1" parent="1">
          <mxGeometry relative="1" as="geometry">
            <mxPoint x="400" y="949.72" as="sourcePoint" />
            <mxPoint x="401.8987000000002" y="1079.85" as="targetPoint" />
            <Array as="points">
              <mxPoint x="402" y="950" />
            </Array>
          </mxGeometry>
        </mxCell>
        <mxCell id="y2qfPMTWO536Oq6Htdhc-47" value="&lt;font style=&quot;font-size: 19px;&quot;&gt;Entrée de la recherche dans le menu déroulant des appareils par l&#39;utilisateur&lt;/font&gt;" style="rounded=1;whiteSpace=wrap;html=1;fillColor=#ffe6cc;strokeColor=#d79b00;" vertex="1" parent="1">
          <mxGeometry x="269.91999999999996" y="869.23" width="264.1" height="80.49" as="geometry" />
        </mxCell>
        <mxCell id="y2qfPMTWO536Oq6Htdhc-48" value="" style="edgeStyle=orthogonalEdgeStyle;rounded=0;orthogonalLoop=1;jettySize=auto;html=1;" edge="1" parent="1" source="y2qfPMTWO536Oq6Htdhc-49" target="y2qfPMTWO536Oq6Htdhc-47">
          <mxGeometry relative="1" as="geometry" />
        </mxCell>
        <mxCell id="y2qfPMTWO536Oq6Htdhc-49" value="&lt;font style=&quot;font-size: 19px;&quot;&gt;Mise à jour de la liste de recettes filtrées, des listes d&#39;ingrédients, d&#39;appareils et d&#39;ustensiles et leur affichage pour l&#39;utilisateur&lt;/font&gt;" style="rounded=1;whiteSpace=wrap;html=1;fillColor=#e1d5e7;strokeColor=#9673a6;" vertex="1" parent="1">
          <mxGeometry x="683.4200000000001" y="852.72" width="280" height="113.5" as="geometry" />
        </mxCell>
        <mxCell id="y2qfPMTWO536Oq6Htdhc-50" value="" style="endArrow=none;html=1;rounded=0;strokeColor=#FFFFFF;" edge="1" parent="1">
          <mxGeometry width="50" height="50" relative="1" as="geometry">
            <mxPoint x="836.16" y="1998.69" as="sourcePoint" />
            <mxPoint x="966.16" y="1998.69" as="targetPoint" />
          </mxGeometry>
        </mxCell>
        <mxCell id="y2qfPMTWO536Oq6Htdhc-51" value="" style="edgeStyle=orthogonalEdgeStyle;rounded=0;orthogonalLoop=1;jettySize=auto;html=1;" edge="1" parent="1" source="y2qfPMTWO536Oq6Htdhc-53" target="y2qfPMTWO536Oq6Htdhc-96">
          <mxGeometry relative="1" as="geometry" />
        </mxCell>
        <mxCell id="y2qfPMTWO536Oq6Htdhc-52" value="OUI" style="edgeLabel;html=1;align=center;verticalAlign=middle;resizable=0;points=[];fontSize=13;fontStyle=1" vertex="1" connectable="0" parent="y2qfPMTWO536Oq6Htdhc-51">
          <mxGeometry x="-0.0324" relative="1" as="geometry">
            <mxPoint x="-2" y="-1" as="offset" />
          </mxGeometry>
        </mxCell>
        <mxCell id="y2qfPMTWO536Oq6Htdhc-53" value="&lt;font style=&quot;font-size: 19px;&quot;&gt;&lt;font style=&quot;font-size: 19px;&quot;&gt;&amp;nbsp;&lt;/font&gt;&lt;/font&gt;&lt;div&gt;&lt;font style=&quot;font-size: 19px;&quot;&gt;&lt;font style=&quot;font-size: 19px;&quot;&gt;Le mot-clé de recherche&amp;nbsp;&lt;/font&gt;&lt;/font&gt;&lt;div style=&quot;font-size: 19px;&quot;&gt;&lt;font style=&quot;font-size: 19px;&quot;&gt;&lt;font style=&quot;font-size: 19px;&quot;&gt;&amp;nbsp;est il&amp;nbsp;&lt;/font&gt;&lt;font style=&quot;background-color: initial; font-size: 19px;&quot;&gt;inférieur ou égal&amp;nbsp;&lt;/font&gt;&lt;span style=&quot;background-color: initial;&quot;&gt;à&amp;nbsp;&lt;/span&gt;&lt;/font&gt;&lt;/div&gt;&lt;div style=&quot;font-size: 19px;&quot;&gt;&lt;span style=&quot;background-color: initial;&quot;&gt;&lt;font style=&quot;font-size: 19px;&quot;&gt;&lt;font style=&quot;font-size: 19px;&quot;&gt;3 caractères&lt;/font&gt;&lt;font style=&quot;font-size: 19px;&quot;&gt; &lt;/font&gt;&lt;font style=&quot;font-size: 19px;&quot;&gt;?&amp;nbsp;&lt;/font&gt;&lt;/font&gt;&lt;/span&gt;&lt;/div&gt;&lt;/div&gt;" style="ellipse;whiteSpace=wrap;html=1;aspect=fixed;fillColor=#ffe6cc;strokeColor=#d79b00;" vertex="1" parent="1">
          <mxGeometry x="281.16999999999996" y="1080" width="228.86" height="150" as="geometry" />
        </mxCell>
        <mxCell id="y2qfPMTWO536Oq6Htdhc-54" value="" style="edgeStyle=orthogonalEdgeStyle;rounded=0;orthogonalLoop=1;jettySize=auto;html=1;" edge="1" parent="1" source="y2qfPMTWO536Oq6Htdhc-96">
          <mxGeometry relative="1" as="geometry">
            <mxPoint x="827.02" y="1155.0000000000002" as="targetPoint" />
          </mxGeometry>
        </mxCell>
        <mxCell id="y2qfPMTWO536Oq6Htdhc-57" value="" style="edgeStyle=orthogonalEdgeStyle;rounded=0;orthogonalLoop=1;jettySize=auto;html=1;" edge="1" parent="1" source="y2qfPMTWO536Oq6Htdhc-58" target="y2qfPMTWO536Oq6Htdhc-60">
          <mxGeometry relative="1" as="geometry" />
        </mxCell>
        <mxCell id="y2qfPMTWO536Oq6Htdhc-58" value="&lt;font style=&quot;font-size: 19px;&quot;&gt;Mise à jour de la liste d&#39;appareils affichée dans le menu déroulant avec les termes correspondants&lt;/font&gt;" style="rounded=1;whiteSpace=wrap;html=1;fillColor=#ffe6cc;strokeColor=#d79b00;" vertex="1" parent="1">
          <mxGeometry x="831.7800000000003" y="1112.45" width="303" height="87.12" as="geometry" />
        </mxCell>
        <mxCell id="y2qfPMTWO536Oq6Htdhc-59" value="" style="edgeStyle=orthogonalEdgeStyle;rounded=0;orthogonalLoop=1;jettySize=auto;html=1;" edge="1" parent="1" source="y2qfPMTWO536Oq6Htdhc-60" target="y2qfPMTWO536Oq6Htdhc-62">
          <mxGeometry relative="1" as="geometry">
            <Array as="points">
              <mxPoint x="1599" y="1156" />
            </Array>
          </mxGeometry>
        </mxCell>
        <mxCell id="y2qfPMTWO536Oq6Htdhc-60" value="&lt;font style=&quot;font-size: 19px;&quot;&gt;L&#39;utilisateur sélectionne un appareil dans la liste mise à jour&lt;/font&gt;" style="rounded=1;whiteSpace=wrap;html=1;fillColor=#ffe6cc;strokeColor=#d79b00;" vertex="1" parent="1">
          <mxGeometry x="1210" y="1119.95" width="310" height="72.12" as="geometry" />
        </mxCell>
        <mxCell id="y2qfPMTWO536Oq6Htdhc-61" value="" style="edgeStyle=orthogonalEdgeStyle;rounded=0;orthogonalLoop=1;jettySize=auto;html=1;entryX=0.433;entryY=0.03;entryDx=0;entryDy=0;entryPerimeter=0;" edge="1" parent="1">
          <mxGeometry relative="1" as="geometry">
            <mxPoint x="1587.8947368421054" y="1288" as="sourcePoint" />
            <mxPoint x="1601.3850000000002" y="1358.0300000000002" as="targetPoint" />
            <Array as="points">
              <mxPoint x="1601" y="1288" />
            </Array>
          </mxGeometry>
        </mxCell>
        <mxCell id="y2qfPMTWO536Oq6Htdhc-62" value="&lt;font style=&quot;font-size: 19px;&quot;&gt;Un tag est créé avec l&#39;appareil sélectionné&lt;/font&gt;" style="rounded=1;whiteSpace=wrap;html=1;fillColor=#ffe6cc;strokeColor=#d79b00;" vertex="1" parent="1">
          <mxGeometry x="1454.5300000000002" y="1230" width="304.81" height="60" as="geometry" />
        </mxCell>
        <mxCell id="y2qfPMTWO536Oq6Htdhc-63" value="" style="edgeStyle=orthogonalEdgeStyle;rounded=0;orthogonalLoop=1;jettySize=auto;html=1;entryX=1;entryY=0.5;entryDx=0;entryDy=0;" edge="1" parent="1" target="y2qfPMTWO536Oq6Htdhc-67">
          <mxGeometry relative="1" as="geometry">
            <mxPoint x="1474" y="1406" as="sourcePoint" />
            <mxPoint x="1405.9500000000003" y="1405.7368421052633" as="targetPoint" />
          </mxGeometry>
        </mxCell>
        <mxCell id="y2qfPMTWO536Oq6Htdhc-66" value="" style="edgeStyle=orthogonalEdgeStyle;rounded=0;orthogonalLoop=1;jettySize=auto;html=1;" edge="1" parent="1" source="y2qfPMTWO536Oq6Htdhc-67" target="y2qfPMTWO536Oq6Htdhc-69">
          <mxGeometry relative="1" as="geometry" />
        </mxCell>
        <mxCell id="y2qfPMTWO536Oq6Htdhc-67" value="&lt;span style=&quot;font-size: 19px;&quot;&gt;Ajout des recettes correspondantes à la nouvelle liste filteredByEquipment&lt;/span&gt;&lt;font style=&quot;font-size: 19px;&quot;&gt;&lt;span style=&quot;font-family: ui-sans-serif, -apple-system, system-ui, &amp;quot;Segoe UI&amp;quot;, Roboto, Ubuntu, Cantarell, &amp;quot;Noto Sans&amp;quot;, sans-serif, Helvetica, &amp;quot;Apple Color Emoji&amp;quot;, Arial, &amp;quot;Segoe UI Emoji&amp;quot;, &amp;quot;Segoe UI Symbol&amp;quot;; text-align: left; white-space-collapse: preserve;&quot;&gt;.&lt;/span&gt;&lt;/font&gt;" style="rounded=1;whiteSpace=wrap;html=1;fillColor=#ffe6cc;strokeColor=#d79b00;" vertex="1" parent="1">
          <mxGeometry x="1086.9500000000003" y="1355.15" width="285" height="101" as="geometry" />
        </mxCell>
        <mxCell id="y2qfPMTWO536Oq6Htdhc-68" value="" style="edgeStyle=orthogonalEdgeStyle;rounded=0;orthogonalLoop=1;jettySize=auto;html=1;" edge="1" parent="1" source="y2qfPMTWO536Oq6Htdhc-69" target="y2qfPMTWO536Oq6Htdhc-71">
          <mxGeometry relative="1" as="geometry" />
        </mxCell>
        <mxCell id="y2qfPMTWO536Oq6Htdhc-69" value="&lt;span style=&quot;font-size: 19px;&quot;&gt;Mise à jour de la liste de recettes filtrées, des listes d&#39;ingrédients, d&#39;appareils et d&#39;ustensiles et leur affichage pour l&#39;utilisateur&lt;/span&gt;" style="rounded=1;whiteSpace=wrap;html=1;fillColor=#ffe6cc;strokeColor=#d79b00;" vertex="1" parent="1">
          <mxGeometry x="679.05" y="1354" width="290" height="102.67" as="geometry" />
        </mxCell>
        <mxCell id="y2qfPMTWO536Oq6Htdhc-70" value="" style="edgeStyle=orthogonalEdgeStyle;rounded=0;orthogonalLoop=1;jettySize=auto;html=1;entryX=0.5;entryY=0;entryDx=0;entryDy=0;" edge="1" parent="1" target="y2qfPMTWO536Oq6Htdhc-74">
          <mxGeometry relative="1" as="geometry">
            <mxPoint x="396.63" y="1412.69" as="sourcePoint" />
            <mxPoint x="396.5100000000001" y="1465.3899999999999" as="targetPoint" />
          </mxGeometry>
        </mxCell>
        <mxCell id="y2qfPMTWO536Oq6Htdhc-71" value="&lt;font style=&quot;font-size: 19px;&quot;&gt;Entrée de la recherche dans le menu déroulant des ustensiles par l&#39;utilisateur&lt;/font&gt;" style="rounded=1;whiteSpace=wrap;html=1;fillColor=#f8cecc;strokeColor=#b85450;" vertex="1" parent="1">
          <mxGeometry x="265.55" y="1361.13" width="290" height="89.04" as="geometry" />
        </mxCell>
        <mxCell id="y2qfPMTWO536Oq6Htdhc-72" value="" style="edgeStyle=orthogonalEdgeStyle;rounded=0;orthogonalLoop=1;jettySize=auto;html=1;" edge="1" parent="1" source="y2qfPMTWO536Oq6Htdhc-74" target="y2qfPMTWO536Oq6Htdhc-76">
          <mxGeometry relative="1" as="geometry" />
        </mxCell>
        <mxCell id="y2qfPMTWO536Oq6Htdhc-73" value="OUI" style="edgeLabel;html=1;align=center;verticalAlign=middle;resizable=0;points=[];fontSize=13;fontStyle=1" vertex="1" connectable="0" parent="y2qfPMTWO536Oq6Htdhc-72">
          <mxGeometry x="-0.0324" relative="1" as="geometry">
            <mxPoint as="offset" />
          </mxGeometry>
        </mxCell>
        <mxCell id="y2qfPMTWO536Oq6Htdhc-74" value="&lt;font style=&quot;font-size: 19px;&quot;&gt;&lt;font style=&quot;font-size: 19px;&quot;&gt;&amp;nbsp;&lt;/font&gt;&lt;/font&gt;&lt;div&gt;&lt;font style=&quot;font-size: 19px;&quot;&gt;&lt;font style=&quot;font-size: 19px;&quot;&gt;Le mot-clé de recherche&amp;nbsp;&lt;/font&gt;&lt;/font&gt;&lt;div style=&quot;font-size: 19px;&quot;&gt;&lt;font style=&quot;font-size: 19px;&quot;&gt;&lt;font style=&quot;font-size: 19px;&quot;&gt;&amp;nbsp;est il&amp;nbsp;&lt;/font&gt;&lt;font style=&quot;background-color: initial; font-size: 19px;&quot;&gt;inférieur ou égal&amp;nbsp;&lt;/font&gt;&lt;span style=&quot;background-color: initial;&quot;&gt;à&amp;nbsp;&lt;/span&gt;&lt;/font&gt;&lt;/div&gt;&lt;div style=&quot;font-size: 19px;&quot;&gt;&lt;span style=&quot;background-color: initial;&quot;&gt;&lt;font style=&quot;font-size: 19px;&quot;&gt;3 caractères ?&amp;nbsp;&lt;/font&gt;&lt;/span&gt;&lt;/div&gt;&lt;/div&gt;" style="ellipse;whiteSpace=wrap;html=1;aspect=fixed;fillColor=#f8cecc;strokeColor=#b85450;" vertex="1" parent="1">
          <mxGeometry x="283.99" y="1603.39" width="225.04" height="147.49" as="geometry" />
        </mxCell>
        <mxCell id="y2qfPMTWO536Oq6Htdhc-75" value="" style="edgeStyle=orthogonalEdgeStyle;rounded=0;orthogonalLoop=1;jettySize=auto;html=1;" edge="1" parent="1" source="y2qfPMTWO536Oq6Htdhc-76">
          <mxGeometry relative="1" as="geometry">
            <mxPoint x="830.6600114253642" y="1677.1052631578946" as="targetPoint" />
          </mxGeometry>
        </mxCell>
        <mxCell id="y2qfPMTWO536Oq6Htdhc-76" value="&lt;font style=&quot;font-size: 19px;&quot;&gt;Filtrer les ustensiles dans la liste &#39;allToolItems&quot;&lt;/font&gt;" style="rounded=1;whiteSpace=wrap;html=1;fillColor=#f8cecc;strokeColor=#b85450;" vertex="1" parent="1">
          <mxGeometry x="571.77" y="1640.75" width="200" height="72.25" as="geometry" />
        </mxCell>
        <mxCell id="y2qfPMTWO536Oq6Htdhc-80" value="" style="edgeStyle=orthogonalEdgeStyle;rounded=0;orthogonalLoop=1;jettySize=auto;html=1;" edge="1" parent="1" source="y2qfPMTWO536Oq6Htdhc-81" target="y2qfPMTWO536Oq6Htdhc-83">
          <mxGeometry relative="1" as="geometry" />
        </mxCell>
        <mxCell id="y2qfPMTWO536Oq6Htdhc-81" value="&lt;font style=&quot;font-size: 19px;&quot;&gt;Mise à jour de la liste d&#39;ustensiles affichée dans le menu déroulant avec les termes correspondants&lt;/font&gt;" style="rounded=1;whiteSpace=wrap;html=1;fillColor=#f8cecc;strokeColor=#b85450;" vertex="1" parent="1">
          <mxGeometry x="833.7799999999999" y="1638.0100000000002" width="324.72" height="78.75" as="geometry" />
        </mxCell>
        <mxCell id="y2qfPMTWO536Oq6Htdhc-82" value="" style="edgeStyle=orthogonalEdgeStyle;rounded=0;orthogonalLoop=1;jettySize=auto;html=1;exitX=1;exitY=0.5;exitDx=0;exitDy=0;" edge="1" parent="1" source="y2qfPMTWO536Oq6Htdhc-83" target="y2qfPMTWO536Oq6Htdhc-85">
          <mxGeometry relative="1" as="geometry" />
        </mxCell>
        <mxCell id="y2qfPMTWO536Oq6Htdhc-83" value="&lt;font style=&quot;font-size: 19px;&quot;&gt;L&#39;utilisateur sélectionne un ustensiles dans la liste mise à jour&lt;/font&gt;" style="rounded=1;whiteSpace=wrap;html=1;fillColor=#f8cecc;strokeColor=#b85450;" vertex="1" parent="1">
          <mxGeometry x="1215.3700000000001" y="1638.7500000000002" width="304.63" height="76.25" as="geometry" />
        </mxCell>
        <mxCell id="y2qfPMTWO536Oq6Htdhc-139" value="" style="edgeStyle=orthogonalEdgeStyle;rounded=0;orthogonalLoop=1;jettySize=auto;html=1;" edge="1" parent="1">
          <mxGeometry relative="1" as="geometry">
            <mxPoint x="1599.0526315789475" y="1810.88" as="sourcePoint" />
            <mxPoint x="1603.8947368421054" y="1877.15" as="targetPoint" />
            <Array as="points">
              <mxPoint x="1604" y="1811" />
            </Array>
          </mxGeometry>
        </mxCell>
        <mxCell id="y2qfPMTWO536Oq6Htdhc-85" value="&lt;font style=&quot;font-size: 19px;&quot;&gt;Un tag est créé avec l&#39;ustensile sélectionné&lt;/font&gt;" style="rounded=1;whiteSpace=wrap;html=1;fillColor=#f8cecc;strokeColor=#b85450;" vertex="1" parent="1">
          <mxGeometry x="1452.24" y="1750.88" width="299.63" height="60" as="geometry" />
        </mxCell>
        <mxCell id="y2qfPMTWO536Oq6Htdhc-86" value="" style="edgeStyle=orthogonalEdgeStyle;rounded=0;orthogonalLoop=1;jettySize=auto;html=1;" edge="1" parent="1" target="y2qfPMTWO536Oq6Htdhc-90">
          <mxGeometry relative="1" as="geometry">
            <mxPoint x="1479.4899999999998" y="1923.69" as="sourcePoint" />
          </mxGeometry>
        </mxCell>
        <mxCell id="y2qfPMTWO536Oq6Htdhc-89" value="" style="edgeStyle=orthogonalEdgeStyle;rounded=0;orthogonalLoop=1;jettySize=auto;html=1;" edge="1" parent="1" source="y2qfPMTWO536Oq6Htdhc-127" target="y2qfPMTWO536Oq6Htdhc-91">
          <mxGeometry relative="1" as="geometry" />
        </mxCell>
        <mxCell id="y2qfPMTWO536Oq6Htdhc-90" value="&lt;span style=&quot;font-size: 19px;&quot;&gt;Ajout des recettes correspondantes à la nouvelle liste filteredByUstensil&lt;/span&gt;&lt;font style=&quot;font-size: 19px;&quot;&gt;&lt;span style=&quot;font-family: ui-sans-serif, -apple-system, system-ui, &amp;quot;Segoe UI&amp;quot;, Roboto, Ubuntu, Cantarell, &amp;quot;Noto Sans&amp;quot;, sans-serif, Helvetica, &amp;quot;Apple Color Emoji&amp;quot;, Arial, &amp;quot;Segoe UI Emoji&amp;quot;, &amp;quot;Segoe UI Symbol&amp;quot;; text-align: left; white-space-collapse: preserve;&quot;&gt;.&lt;/span&gt;&lt;/font&gt;" style="rounded=1;whiteSpace=wrap;html=1;fillColor=#f8cecc;strokeColor=#b85450;" vertex="1" parent="1">
          <mxGeometry x="1062.7" y="1876.19" width="309.25" height="95" as="geometry" />
        </mxCell>
        <mxCell id="y2qfPMTWO536Oq6Htdhc-91" value="&lt;font style=&quot;font-size: 20px;&quot;&gt;Fin&lt;/font&gt;" style="rounded=1;whiteSpace=wrap;html=1;fillColor=#f5f5f5;strokeColor=#666666;fontColor=#333333;" vertex="1" parent="1">
          <mxGeometry x="583.4499999999999" y="1908.6899999999998" width="99.97" height="30" as="geometry" />
        </mxCell>
        <mxCell id="y2qfPMTWO536Oq6Htdhc-92" value="" style="endArrow=classic;html=1;rounded=0;entryX=1;entryY=0.607;entryDx=0;entryDy=0;entryPerimeter=0;" edge="1" parent="1" target="y2qfPMTWO536Oq6Htdhc-26">
          <mxGeometry width="50" height="50" relative="1" as="geometry">
            <mxPoint x="1433.86" y="510" as="sourcePoint" />
            <mxPoint x="535" y="510" as="targetPoint" />
          </mxGeometry>
        </mxCell>
        <mxCell id="y2qfPMTWO536Oq6Htdhc-93" value="" style="endArrow=none;html=1;rounded=0;strokeColor=#FFFFFF;" edge="1" parent="1">
          <mxGeometry width="50" height="50" relative="1" as="geometry">
            <mxPoint x="823.87" y="1158.69" as="sourcePoint" />
            <mxPoint x="827.1357993897459" y="1158.0526369764211" as="targetPoint" />
          </mxGeometry>
        </mxCell>
        <mxCell id="y2qfPMTWO536Oq6Htdhc-95" value="" style="endArrow=classic;html=1;rounded=0;strokeColor=#FFFFFF;" edge="1" parent="1" target="y2qfPMTWO536Oq6Htdhc-96">
          <mxGeometry width="50" height="50" relative="1" as="geometry">
            <mxPoint x="643.87" y="1158.69" as="sourcePoint" />
            <mxPoint x="643.87" y="1408.69" as="targetPoint" />
          </mxGeometry>
        </mxCell>
        <mxCell id="y2qfPMTWO536Oq6Htdhc-96" value="&lt;font style=&quot;font-size: 19px;&quot;&gt;Filtrer les appareils dans la liste &#39;allEquipmentItems&#39;&lt;/font&gt;" style="rounded=1;whiteSpace=wrap;html=1;fillColor=#ffe6cc;strokeColor=#d79b00;" vertex="1" parent="1">
          <mxGeometry x="569.77" y="1118.67" width="200" height="72.33" as="geometry" />
        </mxCell>
        <mxCell id="y2qfPMTWO536Oq6Htdhc-97" value="" style="endArrow=classic;html=1;rounded=0;exitX=0.53;exitY=1.007;exitDx=0;exitDy=0;exitPerimeter=0;" edge="1" parent="1" source="y2qfPMTWO536Oq6Htdhc-29">
          <mxGeometry width="50" height="50" relative="1" as="geometry">
            <mxPoint x="371.63" y="819" as="sourcePoint" />
            <mxPoint x="403" y="869" as="targetPoint" />
          </mxGeometry>
        </mxCell>
        <mxCell id="y2qfPMTWO536Oq6Htdhc-98" value="&lt;font style=&quot;font-size: 13px;&quot;&gt;&lt;b&gt;NON&lt;/b&gt;&lt;/font&gt;" style="edgeLabel;html=1;align=center;verticalAlign=middle;resizable=0;points=[];" vertex="1" connectable="0" parent="y2qfPMTWO536Oq6Htdhc-97">
          <mxGeometry x="-0.0251" y="-1" relative="1" as="geometry">
            <mxPoint as="offset" />
          </mxGeometry>
        </mxCell>
        <mxCell id="y2qfPMTWO536Oq6Htdhc-99" value="" style="endArrow=classic;html=1;rounded=0;exitX=0.53;exitY=1.007;exitDx=0;exitDy=0;exitPerimeter=0;entryX=0.452;entryY=-0.05;entryDx=0;entryDy=0;entryPerimeter=0;" edge="1" parent="1" target="y2qfPMTWO536Oq6Htdhc-71">
          <mxGeometry width="50" height="50" relative="1" as="geometry">
            <mxPoint x="397.1" y="1228.69" as="sourcePoint" />
            <mxPoint x="397.1" y="1345.69" as="targetPoint" />
          </mxGeometry>
        </mxCell>
        <mxCell id="y2qfPMTWO536Oq6Htdhc-100" value="&lt;font style=&quot;font-size: 13px;&quot;&gt;&lt;b&gt;NON&lt;/b&gt;&lt;/font&gt;" style="edgeLabel;html=1;align=center;verticalAlign=middle;resizable=0;points=[];" vertex="1" connectable="0" parent="y2qfPMTWO536Oq6Htdhc-99">
          <mxGeometry x="-0.0251" y="-1" relative="1" as="geometry">
            <mxPoint as="offset" />
          </mxGeometry>
        </mxCell>
        <mxCell id="y2qfPMTWO536Oq6Htdhc-101" value="" style="edgeStyle=orthogonalEdgeStyle;rounded=0;orthogonalLoop=1;jettySize=auto;html=1;" edge="1" parent="1">
          <mxGeometry relative="1" as="geometry">
            <mxPoint x="400" y="237" as="sourcePoint" />
            <mxPoint x="397.6300000000001" y="265.15999999999985" as="targetPoint" />
          </mxGeometry>
        </mxCell>
        <mxCell id="y2qfPMTWO536Oq6Htdhc-102" value="&lt;span style=&quot;font-size: 19px;&quot;&gt;Aucune recette ne s&#39;affiche&lt;/span&gt;" style="rounded=1;whiteSpace=wrap;html=1;fillColor=#dae8fc;strokeColor=#6c8ebf;" vertex="1" parent="1">
          <mxGeometry x="1081.54" y="420" width="258" height="50" as="geometry" />
        </mxCell>
        <mxCell id="y2qfPMTWO536Oq6Htdhc-103" value="" style="endArrow=classic;html=1;rounded=0;" edge="1" parent="1">
          <mxGeometry width="50" height="50" relative="1" as="geometry">
            <mxPoint x="900" y="420" as="sourcePoint" />
            <mxPoint x="1080" y="450" as="targetPoint" />
            <Array as="points">
              <mxPoint x="900" y="450" />
            </Array>
          </mxGeometry>
        </mxCell>
        <mxCell id="y2qfPMTWO536Oq6Htdhc-104" value="&lt;font style=&quot;font-size: 13px;&quot;&gt;&lt;b&gt;NON&lt;/b&gt;&lt;/font&gt;" style="edgeLabel;html=1;align=center;verticalAlign=middle;resizable=0;points=[];" vertex="1" connectable="0" parent="y2qfPMTWO536Oq6Htdhc-103">
          <mxGeometry x="0.1438" y="-2" relative="1" as="geometry">
            <mxPoint y="-2" as="offset" />
          </mxGeometry>
        </mxCell>
        <mxCell id="y2qfPMTWO536Oq6Htdhc-123" value="&lt;font style=&quot;font-size: 19px;&quot;&gt;Rien ne se passe&lt;/font&gt;" style="rounded=1;whiteSpace=wrap;html=1;fillColor=#f8cecc;strokeColor=#b85450;" vertex="1" parent="1">
          <mxGeometry x="296.59000000000003" y="1888.69" width="200.08" height="70" as="geometry" />
        </mxCell>
        <mxCell id="y2qfPMTWO536Oq6Htdhc-124" value="" style="edgeStyle=orthogonalEdgeStyle;rounded=0;orthogonalLoop=1;jettySize=auto;html=1;" edge="1" parent="1">
          <mxGeometry relative="1" as="geometry">
            <mxPoint x="395.92" y="1754" as="sourcePoint" />
            <mxPoint x="396" y="1890" as="targetPoint" />
          </mxGeometry>
        </mxCell>
        <mxCell id="y2qfPMTWO536Oq6Htdhc-125" value="&lt;font style=&quot;font-size: 13px;&quot;&gt;&lt;b&gt;NON&lt;/b&gt;&lt;/font&gt;" style="edgeLabel;html=1;align=center;verticalAlign=middle;resizable=0;points=[];" vertex="1" connectable="0" parent="y2qfPMTWO536Oq6Htdhc-124">
          <mxGeometry x="-0.0952" y="2" relative="1" as="geometry">
            <mxPoint y="1" as="offset" />
          </mxGeometry>
        </mxCell>
        <mxCell id="y2qfPMTWO536Oq6Htdhc-126" value="" style="edgeStyle=orthogonalEdgeStyle;rounded=0;orthogonalLoop=1;jettySize=auto;html=1;" edge="1" parent="1" source="y2qfPMTWO536Oq6Htdhc-90" target="y2qfPMTWO536Oq6Htdhc-127">
          <mxGeometry relative="1" as="geometry">
            <mxPoint x="1063" y="1924" as="sourcePoint" />
            <mxPoint x="683" y="1924" as="targetPoint" />
          </mxGeometry>
        </mxCell>
        <mxCell id="y2qfPMTWO536Oq6Htdhc-127" value="&lt;span style=&quot;font-size: 19px;&quot;&gt;Mise à jour de la liste de recettes filtrées, des listes d&#39;ingrédients, d&#39;appareils et d&#39;ustensiles et leur affichage&lt;/span&gt;" style="rounded=1;whiteSpace=wrap;html=1;fillColor=#f8cecc;strokeColor=#b85450;" vertex="1" parent="1">
          <mxGeometry x="740.0000000000001" y="1876.19" width="290" height="94.04" as="geometry" />
        </mxCell>
        <mxCell id="y2qfPMTWO536Oq6Htdhc-132" value="" style="edgeStyle=orthogonalEdgeStyle;rounded=0;orthogonalLoop=1;jettySize=auto;html=1;" edge="1" parent="1" source="y2qfPMTWO536Oq6Htdhc-129" target="y2qfPMTWO536Oq6Htdhc-45">
          <mxGeometry relative="1" as="geometry" />
        </mxCell>
        <mxCell id="y2qfPMTWO536Oq6Htdhc-129" value="&lt;span style=&quot;font-size: 19px;&quot;&gt;Vérifier avec filter et some que chaque ingrédient sélectionné est présent dans la recette&lt;/span&gt;" style="rounded=1;whiteSpace=wrap;html=1;fillColor=#e1d5e7;strokeColor=#9673a6;" vertex="1" parent="1">
          <mxGeometry x="1476.86" y="852.73" width="280" height="113.5" as="geometry" />
        </mxCell>
        <mxCell id="y2qfPMTWO536Oq6Htdhc-135" value="&lt;span style=&quot;font-size: 19px;&quot;&gt;Vérifier avec filter que chaque appareil sélectionné est présent dans la recette&lt;/span&gt;" style="rounded=1;whiteSpace=wrap;html=1;fillColor=#ffe6cc;strokeColor=#d79b00;" vertex="1" parent="1">
          <mxGeometry x="1477.98" y="1357" width="285" height="101" as="geometry" />
        </mxCell>
        <mxCell id="y2qfPMTWO536Oq6Htdhc-137" value="&lt;span style=&quot;font-size: 19px;&quot;&gt;Vérifier avec filter et some que chaque ustensile sélectionné est présent dans la recette&lt;/span&gt;" style="rounded=1;whiteSpace=wrap;html=1;fillColor=#f8cecc;strokeColor=#b85450;" vertex="1" parent="1">
          <mxGeometry x="1461.87" y="1877.15" width="290" height="94.04" as="geometry" />
        </mxCell>
      </root>
    </mxGraphModel>
  </diagram>
</mxfile>
